<svg xmlns="http://www.w3.org/2000/svg" xmlns:xlink="http://www.w3.org/1999/xlink" viewBox="0 0 940 400"><g fill="#fff"><path d="M189.3 38.6L54.5 173a101.67 101.67 0 0 0 7.5 14.7L204 46.1a78.24 78.24 0 0 0-14.7-7.5m-37.2-7.9L47 135.9a90.51 90.51 0 0 0 2.5 20L172.2 33.2a97.83 97.83 0 0 0-20.1-2.5"/><path d="M77 60.7a101.3 101.3 0 0 0-27.5 50.2l77.6-77.7a103.68 103.68 0 0 0-50.2 27.5m173.5 95.2a122.84 122.84 0 0 0 2.6-20.1L206.1 89l11.1-11.1 33.2 33.5a104.29 104.29 0 0 0-21.9-44.6c-1.8-2.1-3.6-3.9-5.4-5.7l-5.7-5.3L71.8 200.9a74.69 74.69 0 0 0 5.4 5.7l5.7 5.4 67.1-66.9 67.2 67.2a74.69 74.69 0 0 0 5.7-5.4l5.4-5.7-67.2-67.6 11.1-11.1 65.3 65.3a101.67 101.67 0 0 0 7.5-14.7l-61.4-61.8 11.1-11.1z"/><path d="M204 221.9l-54-54.5-54 54.5a101.67 101.67 0 0 0 14.7 7.5l31.1-31.1v70.3h16.5v-70.3l31.1 31.1a118.35 118.35 0 0 0 14.6-7.5m295.6 26.9c0-12.5 6.1-22.1 18.6-22.1a13.09 13.09 0 0 1 12.9 7.9v-6.8h13.2v45.1h-13.2V266a13.09 13.09 0 0 1-12.9 7.9c-12.5 0-18.6-9.3-18.6-22.2zm14 3.2c0 6.8 2.5 11.1 8.9 11.1s8.6-3.9 8.6-10.4V248c0-6.4-2.9-10.3-8.6-10.3s-8.9 4.3-8.9 11zm59-25.1a26.31 26.31 0 0 1 13.2 2.9l-2.8 9.6a21.25 21.25 0 0 0-8.9-2.2c-7.5 0-10.7 4.3-10.7 11.4v2.5c0 7.2 3.2 11.4 10.7 11.4a19.44 19.44 0 0 0 8.9-2.1l2.9 9.7a28.61 28.61 0 0 1-13.2 2.9c-16.1 0-23.2-8.6-23.2-22.5v-2.1c-.1-12.9 7.4-21.5 23.1-21.5m15 25.1v-3.9c0-12.9 7.1-21.1 22.2-21.1 13.9 0 20.1 8.6 20.1 21.1v7.2h-28.6c.3 6.1 2.9 8.9 10.7 8.9a39.29 39.29 0 0 0 14.7-2.9l2.5 9.3a45.63 45.63 0 0 1-17.5 3.2c-17.5 0-24-8.6-24.1-21.8m13.7-6.1h16.4v-1c0-5-2.1-8.9-7.8-8.9s-8.6 3.9-8.6 10m79.3 5.7c0 12.5-6.1 22.2-18.6 22.2a14.33 14.33 0 0 1-13.5-7.9v6.8h-12.9v-67.6l13.6-1.1v30.1a13.88 13.88 0 0 1 12.5-7.4c12.5 0 18.6 9.3 18.6 22.1v2.5zm-13.6-3.2c0-6.4-2.5-11.1-8.9-11.1s-8.6 4-8.6 10.4v4.7c0 6.4 2.9 10.4 8.6 10.4s8.9-4.6 8.9-11.1zm17.9 2.8v-2.2a22.61 22.61 0 0 1 45.2 0v2.2a20.51 20.51 0 0 1-18.7 22.2 24.1 24.1 0 0 1-3.8 0c-15.1.4-22.6-9-22.7-22.2m31.6-3.2c0-6.1-2.5-10.7-8.9-10.7s-8.9 4.7-8.9 10.7v4.3c0 6.1 2.5 10.7 8.9 10.7s8.9-4.6 8.9-10.7zm18.1 3.2v-2.2a22.61 22.61 0 0 1 45.2 0v2.2a20.51 20.51 0 0 1-18.7 22.2 24.1 24.1 0 0 1-3.8 0c-15.4.4-22.5-8.9-22.5-22.2m31.1-3.2c0-6.1-2.5-10.7-8.9-10.7s-8.9 4.6-8.9 10.7v4.3c0 6.1 2.5 10.7 8.9 10.7s8.8-4.6 8.8-10.7zm32.4 1.1l13.2-21.5h14.6l-14.3 22.2 14.7 22.9h-14.3l-13.9-22.2v22.2h-14v-67.6l14-1.4v45.4z"/><path d="M492.9 214.9c-4.3 0-5.4 1.8-5.4 6.1v6.8H499l-1.1 11.1h-10.4v34h-13.6v-34h-9.4v-11.1h9.3V221c0-11.4 4.7-17.2 17.2-17.2 2.9 0 6.1.4 7.9.4v10.4H493v.3zm-59 11.4a17.2 17.2 0 0 0-16.1 10.6 14.1 14.1 0 0 0-14.7-10.3 15.94 15.94 0 0 0-15.1 9.6v-8.8h-5.3v45.2h5V254c0-14.3 5.7-22.5 14.7-22.5 7.1 0 11.1 5 11.1 13.2V273h5.4v-18.8c0-14.3 5.7-22.5 14.7-22.5 7.1 0 11 5 11 13.2v28.3h5.5v-28.6c-.1-11.9-6.5-18.3-16.2-18.3m-82.2 42.2c-9.7 0-16.5-7.5-16.5-18.9s7.2-19 16.5-19 16.4 7.5 16.4 19-6.8 18.9-16.4 18.9m0 4.7a21.9 21.9 0 0 0 22.2-21.6V250a22.175 22.175 0 1 0-44.3-2.1v2.1a21.93 21.93 0 0 0 20.6 23.2 3.78 3.78 0 0 1 1.5 0m-29-46.4a11.72 11.72 0 0 0-11.8 8.6v-8.1h-5v45.2h5.4v-20.1c.4-15.6 4.3-20.6 11.1-20.6a5.44 5.44 0 0 1 3.9 1.1l2.1-4.7a12.32 12.32 0 0 0-5.7-1.4m-29.3-13.9a7.56 7.56 0 0 1 5.7 2.5l2.9-3.5a12.9 12.9 0 0 0-8.9-3.6 11 11 0 0 0-11.5 10.4v.1a13.4 13.4 0 0 0 .1 2v6.6H274v4.5h7.5v40.2h5.4v-40.2h11.9v-4.5H287v-7.1c0-4.7 2.5-7.5 6.4-7.5M281.6 78.6l5.4-1.7a20 20 0 0 0 20.4 15.7c10 0 16.8-5.4 16.8-13.6a12 12 0 0 0-11.8-11.8L299.5 65c-10-1.5-16.1-7.2-16.1-15.8 0-10.7 9.3-17.9 21.8-17.9a21.67 21.67 0 0 1 22.5 15.4l-5.4 1.8a15.68 15.68 0 0 0-16.8-11.8c-8.9 0-16.5 4.7-16.5 12.5 0 6.1 4.3 9.7 11.8 10.7l13 2.2c10.4 1.8 16.1 8.2 16.1 17.2 0 11.4-9.3 18.9-22.9 18.9a25.78 25.78 0 0 1-25.1-19.7m55.8-4.5a22.38 22.38 0 0 1 20.7-23.9 12 12 0 0 1 1.9 0 19.71 19.71 0 0 1 20.1 15.4l-5 1.4a15.14 15.14 0 0 0-15.1-12.2c-9.7 0-16.8 7.5-16.8 19s6.8 19.2 16.8 19.2a16.32 16.32 0 0 0 15.8-11.6l5 1.8a21.19 21.19 0 0 1-20.7 14.7 22 22 0 0 1-22.6-21.4v-2.2"/><path d="M429.6 67.9v29h-5.3V68.3c0-8.2-4.3-13.6-11.8-13.6-9.6 0-15.7 8.6-15.7 22.9v18.8h-5.5V32.9h5.4v27.8a16.8 16.8 0 0 1 16.5-10.3c9.6-.3 16.4 6.4 16.4 17.5m7.2 6.1a22.6 22.6 0 1 1 22.6 22.6A22.58 22.58 0 0 1 436.8 74m39.3 0c0-11.4-7.1-19.3-16.8-19.3s-16.8 7.9-16.8 19.3 6.9 19.3 17 19.3 16.8-7.8 16.8-19.3m11.6 0a22.6 22.6 0 1 1 22.6 22.6A22.58 22.58 0 0 1 487.9 74m39.3 0c0-11.4-7.1-19.3-16.8-19.3s-16.8 7.9-16.8 19.3 7.1 19.3 16.8 19.3 16.8-7.9 16.8-19.3m14.3-41.1h5.7v64h-5.7z"/><path d="M578.3 74a22.6 22.6 0 1 1 22.6 22.6A22.64 22.64 0 0 1 578.3 74m39 0c0-11.4-7.1-19.3-16.8-19.3s-16.8 7.9-16.8 19.3 7.1 19.3 16.8 19.3 16.8-7.9 16.8-19.3m23.3-30v7.2h12.2v4.7h-12.2v41h-5.7V55.8h-7.5v-4.6h7.5v-6.5A11.48 11.48 0 0 1 645 32.2a6.69 6.69 0 0 1 2 0 12.3 12.3 0 0 1 8.9 3.6l-2.9 3.6a7.89 7.89 0 0 0-5.7-2.5c-4.2-.4-6.7 2.4-6.7 7.1m-357.3 72.2h5.7v64h-5.7zm57.3 35v29h-5.4v-28.6c0-8.2-4.3-13.6-11.8-13.6-9.6 0-15.7 8.6-15.7 22.8v19H302v-45.5h5.4v9.7a16.93 16.93 0 0 1 16.6-10.4c10.4-.4 16.8 6.4 16.8 17.5"/><path d="M390.6 151.2v29h-5.4v-28.6c0-8.2-4.3-13.6-11.8-13.6-9.6 0-15.7 8.6-15.7 22.8v19H352v-45.5h5.4v9.7a16.75 16.75 0 0 1 16.4-10.4c10-.3 16.8 6.5 16.8 17.6m8.6 6.1a22.6 22.6 0 1 1 22.6 22.6 22.58 22.58 0 0 1-22.6-22.6m39.3 0c0-11.4-7.1-19.3-16.8-19.3s-16.8 7.8-16.8 19.3 7.1 19.4 16.8 19.4 16.8-7.9 16.8-19.4m50.1-22.9l-17.1 45.8h-7.2l-17.2-45.8h5.7l15.4 40.4 14.7-40.4h5.7zm44.3 17.9v27.5h-5.3v-7.9a16.85 16.85 0 0 1-15.4 9c-8.6 0-14.3-5-14.3-12.5s6.5-12.1 15.8-14.3l13.6-3.2a12 12 0 0 0-11.4-12.8h-1.5a15.05 15.05 0 0 0-15.3 12.9l-5.4-1.4a20.18 20.18 0 0 1 20.7-15.8 16.94 16.94 0 0 1 18.5 15.2 18.18 18.18 0 0 1 0 3.3m-5.3 11.4v-8.2l-12.2 2.9c-5.3 1.4-11.8 3.9-11.8 10a8.5 8.5 0 0 0 8.7 8.3 2.77 2.77 0 0 0 .9-.1 13.59 13.59 0 0 0 14.4-12.9m39.3 14a11.12 11.12 0 0 1-8.6 3.6 10.13 10.13 0 0 1-10.8-9.2v-.1a5.44 5.44 0 0 1 0-1.8v-30.8h-7.8v-5h7.8v-9.6l5.4-2.5v12.1h11.5v4.7H553v31.5c0 3.9 2.2 6.1 5.4 6.1a6.47 6.47 0 0 0 5.4-2.9zm14.3-54.7h-6.3v-7.2h6.4zm-.3 57.2h-5.4v-45.8h5.4zm9.6-22.9a22.6 22.6 0 1 1 22.6 22.6 22.58 22.58 0 0 1-22.6-22.6m39.3 0c0-11.4-7.1-19.3-16.8-19.3s-16.8 7.8-16.8 19.3 7.1 19.4 16.8 19.4 16.8-7.9 16.8-19.4m52.9-6.1v29h-5.3v-28.6c0-8.2-4.3-13.6-11.8-13.6-9.7 0-15.8 8.6-15.8 22.8v19h-5.4v-45.5h5.4v9.7a16.8 16.8 0 0 1 16.5-10.4c10-.3 16.4 6.5 16.4 17.6m34.4-33.2h5.7v64h-5.7zm56.8 35v29h-5.3v-28.6c0-8.2-4.3-13.6-11.8-13.6-9.7 0-15.8 8.6-15.8 22.9v19h-5.4v-45.2h5.4v9.6a16.8 16.8 0 0 1 16.5-10.3c10-.4 16.4 6.4 16.4 17.5M826 118v64h-5v-8.6a19.12 19.12 0 0 1-16.8 9.3c-12.9 0-21.1-9.6-21.1-23.6s8.5-23.6 21.1-23.6a18.91 18.91 0 0 1 16.8 9.3V118zm-5 41.1c0-11.4-6.1-19.3-16.1-19.3s-16.5 7.9-16.5 19.3 6.5 19.3 16.5 19.3 16.1-7.9 16.1-19.3m23.3-34.3h-6.1v-7.1h6.5v7.1zM844 182h-5.4v-45.8h5.4z"/><path d="M893 154.4V182h-5.4v-7.9a16.48 16.48 0 0 1-15.4 8.9c-8.6 0-14.3-5-14.3-12.5s6.4-12.1 15.7-14.3l13.6-3.2a12.2 12.2 0 0 0-11.5-12.9h-1.4a15 15 0 0 0-15.4 12.9l-5.3-1.4a20.1 20.1 0 0 1 20.7-15.7c12.3-.7 18.7 7.1 18.7 18.5m-5.4 11.2v-8.2l-12.2 2.9c-5.4 1.5-11.8 4-11.8 10a8.5 8.5 0 0 0 8.7 8.3 2.77 2.77 0 0 0 .9-.1 13.73 13.73 0 0 0 14.4-12.9M290 345h-4.1v10.6h-3.1v-30h7.5c7.9 0 11.7 3.8 11.7 9.4.1 6.5-4.6 9.9-12 10zm.3-16.6h-4.4v13.8l4.3-.1c5.7-.1 8.7-2.4 8.7-7 0-4.3-3-6.7-8.6-6.7z"/><path d="M316 356.2c-6.1 0-10.6-4.5-10.6-11.6s4.7-11.7 10.8-11.7 10.6 4.5 10.6 11.6-4.7 11.7-10.8 11.7zm.1-20.5c-4.7 0-7.7 3.7-7.7 8.9 0 5.4 3.1 9 7.8 9s7.7-3.7 7.7-8.9c-.1-5.4-3.2-9-7.8-9zm20.1 20l-6.7-22.1h3.2l5.1 17.5 5.7-17.5h2.7l6 17.6 4.6-17.6h3.3l-6.5 22.1H351l-6-17.8-6 17.8z"/><use xlink:href="#B"/><path d="M389.5,355.6h-3v-22l3-.6v4.7c1.4-2.8,3.6-4.7,6.5-4.7a7.66,7.66,0,0,1,3.8,1l-.8,2.8a6.46,6.46,0,0,0-3.4-1c-2.3,0-4.5,1.7-6.2,5.7v14.1Z"/><use xlink:href="#B" x="39.5"/><path d="M440.8 323.2l3-.6v33h-3v-2.1a9.5 9.5 0 0 1-6.4 2.7c-5.9 0-9.8-4.8-9.8-11.4 0-6.8 4.6-11.7 10.9-11.7a12.53 12.53 0 0 1 5.3 1.2zm-5.5 12.6c-4.7 0-7.7 3.7-7.7 8.9s2.8 8.7 7.3 8.7a9 9 0 0 0 5.9-2.4v-13.5a8.8 8.8 0 0 0-5.5-1.7zm35 20.4a13.76 13.76 0 0 1-5.4-1.2l-3 1.3v-33.1l3-.6v13.3a9.83 9.83 0 0 1 6.6-2.8c5.8 0 9.6 4.6 9.6 11.2 0 6.9-4.5 11.9-10.8 11.9zm.7-20.3a8.81 8.81 0 0 0-6 2.4v13.5a8.8 8.8 0 0 0 5.5 1.7c4.7 0 7.6-3.8 7.6-9.1 0-4.9-2.8-8.5-7.1-8.5zm23.5 19.4l-1.8 4.8c-2 5.4-4.1 6.9-7.1 6.9a10.07 10.07 0 0 1-4.3-1l.9-2.7a7 7 0 0 0 3.4 1c1.7 0 2.9-.9 4.5-5.1l1.5-3.9-8.6-21.7h3.2l6.9 18.1 6.8-18.1h3.1zm13.4-14.4a2.45 2.45 0 0 1 0-4.9 2.37 2.37 0 0 1 2.4 2.4 2.45 2.45 0 0 1-2.4 2.5zm0 15.3a2.45 2.45 0 0 1-2.4-2.5 2.4 2.4 0 0 1 4.8 0 2.45 2.45 0 0 1-2.4 2.5zm33.4-9c0-2-2.2-2.7-6.1-3.8-4.4-1.2-9.6-3.2-9.6-9.2 0-5.6 4.1-9.3 11.5-9.3a23.44 23.44 0 0 1 11.2 2.6l-1.5 6.3a22 22 0 0 0-9.7-2.6c-2.6 0-3.9.9-3.9 2.5 0 2 2.7 2.7 6.3 3.7 4.6 1.2 9.4 3.4 9.4 9.1s-4.4 9.7-12.3 9.7a25.78 25.78 0 0 1-11.6-2.7l1.4-6.3a22.3 22.3 0 0 0 10.3 2.8c2.7 0 4.6-1 4.6-2.8zm28.8 8.4h-9.6l-10.1-30h7.9l7.1 22.6 7.1-22.6h8zm14 .7a4.31 4.31 0 0 1-4.6-4.4 4.25 4.25 0 0 1 4.6-4.4 4.17 4.17 0 0 1 4.5 4.4 4.23 4.23 0 0 1-4.5 4.4zm31.3-22.8a15.6 15.6 0 0 0-7.6-2.2c-5.2 0-8.5 3.5-8.5 9.2s3.2 9.3 8.6 9.3a15 15 0 0 0 7.9-2.4l1.6 6.8a22.49 22.49 0 0 1-9.8 2.2c-9.6 0-15.9-5.5-15.9-15.6 0-9.7 6.3-15.8 16.2-15.8a22.23 22.23 0 0 1 9.9 2.3zm20.5 22.8c-8.9 0-15.6-5.5-15.6-15.6 0-9.5 6.8-15.8 15.7-15.8s15.7 5.5 15.7 15.6c0 9.5-6.9 15.8-15.8 15.8zm0-25.3c-5.1 0-8 3.8-8 9.5s3 9.7 8.1 9.7 8-3.9 8-9.5c0-5.8-3-9.7-8.1-9.7z"/></g><defs ><path id="B" d="M365.4,344.9c.1,4.9,3.1,8.5,7.7,8.5a12,12,0,0,0,6.4-1.8l.6,2.7a13.16,13.16,0,0,1-7.1,1.9c-6.3,0-10.6-4.8-10.6-11.4,0-6.9,4.4-11.8,10.4-11.8,4.8,0,8,3.2,8,8.1a12.86,12.86,0,0,1-.5,3.5l-14.9.1Zm12.4-2.6v-1c0-3.4-1.8-5.7-5.3-5.7-3.9,0-6.5,3-7,6.7Z"/></defs></svg>